<svg xmlns="http://www.w3.org/2000/svg" xmlns:xlink="http://www.w3.org/1999/xlink" width="1080" zoomAndPan="magnify" viewBox="0 0 810 809.999993" height="1080" preserveAspectRatio="xMidYMid meet" version="1.0"><defs><g/><clipPath id="bbcc5acf63"><path d="M 361.589844 384.589844 L 505.855469 384.589844 L 505.855469 541.339844 L 361.589844 541.339844 Z M 361.589844 384.589844 " clip-rule="nonzero"/></clipPath><clipPath id="b90e629657"><path d="M 259.847656 383.566406 L 358.179688 383.566406 L 358.179688 540.316406 L 259.847656 540.316406 Z M 259.847656 383.566406 " clip-rule="nonzero"/></clipPath><clipPath id="b812fcd653"><path d="M 102 364 L 709 364 L 709 667.472656 L 102 667.472656 Z M 102 364 " clip-rule="nonzero"/></clipPath><clipPath id="cc776ebe1f"><path d="M 301.394531 274.097656 L 414.644531 274.097656 L 414.644531 366.347656 L 301.394531 366.347656 Z M 301.394531 274.097656 " clip-rule="nonzero"/></clipPath></defs><rect x="-81" width="972" fill="#ffffff" y="-80.999999" height="971.999992" fill-opacity="1"/><rect x="-81" width="972" fill="#ffffff" y="-80.999999" height="971.999992" fill-opacity="1"/><rect x="-81" width="972" fill="#8257e5" y="-80.999999" height="971.999992" fill-opacity="1"/><g clip-path="url(#bbcc5acf63)"><path fill="#e7eaef" d="M 418.097656 472.136719 L 446.308594 472.136719 C 451.441406 472.136719 455.699219 475.78125 456.671875 480.640625 L 470.445312 527.925781 C 474.300781 541.257812 454.078125 547.144531 450.234375 533.8125 L 438.433594 493.316406 L 405.019531 493.316406 L 418.082031 472.121094 Z M 472.441406 418.03125 C 473.980469 411.253906 484.261719 413.621094 482.707031 420.382812 L 477.726562 442.160156 L 505.011719 486.386719 C 508.644531 492.273438 499.683594 497.824219 496.050781 491.925781 L 474.382812 456.789062 L 471.152344 470.871094 C 469.613281 477.648438 459.335938 475.296875 460.886719 468.519531 Z M 361.714844 444.652344 C 360.1875 436.121094 373.128906 433.785156 374.65625 442.328125 C 374.667969 442.398438 378.523438 464.246094 382.105469 482.585938 C 384.101562 492.828125 389.34375 497.796875 396.433594 499.855469 C 404.726562 502.292969 415.851562 501.375 427.597656 499.855469 C 436.171875 498.773438 437.820312 511.851562 429.25 512.953125 C 416.042969 514.664062 403.339844 515.625 392.769531 512.546875 C 380.964844 509.097656 372.296875 501.164062 369.164062 485.121094 C 366.75 472.734375 361.726562 444.734375 361.714844 444.652344 Z M 401.148438 384.589844 C 409.996094 384.589844 417.167969 391.785156 417.167969 400.664062 C 417.167969 409.542969 409.996094 416.738281 401.148438 416.738281 C 392.296875 416.738281 385.128906 409.542969 385.128906 400.664062 C 385.128906 391.785156 392.296875 384.589844 401.148438 384.589844 Z M 392.546875 424.445312 L 396.847656 423.738281 C 401.007812 423.039062 405.058594 424.503906 407.859375 427.300781 C 408.804688 427.9375 409.636719 428.914062 410.207031 430.25 C 414.144531 439.449219 422.6875 445.585938 432.355469 447.503906 C 436.808594 448.394531 444.949219 448.632812 448.28125 444.804688 C 453.96875 438.277344 463.871094 446.960938 458.183594 453.488281 C 451.386719 461.308594 439.390625 462.394531 429.832031 460.488281 C 424.476562 459.429688 419.359375 457.414062 414.769531 454.589844 L 415.644531 459.875 L 395.210938 491.605469 C 392.1875 489.742188 389.941406 486.625 389.316406 482.851562 L 382.105469 439.058594 C 380.964844 432.15625 385.667969 425.585938 392.546875 424.445312 " fill-opacity="1" fill-rule="nonzero"/></g><g clip-path="url(#b90e629657)"><path fill="#e7eaef" d="M 316.359375 471.109375 L 344.570312 471.109375 C 349.703125 471.109375 353.960938 474.757812 354.933594 479.613281 L 368.707031 526.898438 C 372.5625 540.230469 352.339844 546.117188 348.496094 532.785156 L 336.691406 492.289062 L 303.277344 492.289062 L 316.34375 471.097656 Z M 370.703125 417.003906 C 372.242188 410.226562 382.519531 412.59375 380.964844 419.355469 L 375.988281 441.136719 L 403.269531 485.359375 C 406.90625 491.246094 397.945312 496.800781 394.308594 490.898438 L 372.644531 455.761719 L 369.414062 469.84375 C 367.871094 476.621094 357.59375 474.269531 359.148438 467.492188 Z M 259.972656 443.625 C 258.449219 435.09375 271.390625 432.757812 272.914062 441.300781 C 272.929688 441.371094 276.785156 463.21875 280.363281 481.5625 C 282.359375 491.804688 287.605469 496.769531 294.691406 498.832031 C 302.988281 501.265625 314.109375 500.347656 325.859375 498.832031 C 334.429688 497.746094 336.082031 510.828125 327.507812 511.925781 C 314.304688 513.636719 301.597656 514.597656 291.03125 511.523438 C 279.226562 508.070312 270.558594 500.140625 267.421875 484.09375 C 265.007812 471.707031 259.988281 443.710938 259.972656 443.625 Z M 299.40625 383.566406 C 308.257812 383.566406 315.429688 390.757812 315.429688 399.636719 C 315.429688 408.515625 308.257812 415.710938 299.40625 415.710938 C 290.558594 415.710938 283.386719 408.515625 283.386719 399.636719 C 283.386719 390.757812 290.558594 383.566406 299.40625 383.566406 Z M 290.808594 423.421875 L 295.109375 422.710938 C 299.269531 422.015625 303.320312 423.476562 306.121094 426.273438 C 307.066406 426.914062 307.898438 427.886719 308.464844 429.222656 C 312.40625 438.421875 320.949219 444.558594 330.617188 446.480469 C 335.070312 447.371094 343.210938 447.605469 346.539062 443.777344 C 352.226562 437.253906 362.128906 445.9375 356.445312 452.460938 C 349.648438 460.285156 337.648438 461.367188 328.09375 459.460938 C 322.738281 458.40625 317.621094 456.386719 313.027344 453.5625 L 313.902344 458.851562 L 293.472656 490.578125 C 290.449219 488.714844 288.199219 485.597656 287.578125 481.824219 L 280.363281 438.03125 C 279.226562 431.128906 283.929688 424.5625 290.808594 423.421875 " fill-opacity="1" fill-rule="nonzero"/></g><g clip-path="url(#b812fcd653)"><path fill="#e7eaef" d="M 529.394531 449.261719 C 529.394531 449.261719 460.570312 388.269531 407.875 382.464844 C 355.097656 376.578125 294.378906 378.375 280.023438 384.253906 C 265.753906 390.144531 260.851562 445.164062 260.851562 445.164062 C 260.851562 445.164062 526.691406 456.933594 529.394531 449.261719 Z M 605.734375 554.863281 C 580.230469 554.863281 559.539062 575.761719 559.539062 601.609375 C 559.539062 627.367188 580.230469 648.355469 605.734375 648.355469 C 631.320312 648.355469 652.011719 627.367188 652.011719 601.609375 C 652.011719 575.761719 631.320312 554.863281 605.734375 554.863281 Z M 605.734375 535.757812 C 569.757812 535.757812 540.542969 565.1875 540.542969 601.609375 C 540.542969 637.949219 569.757812 667.464844 605.734375 667.464844 C 641.789062 667.464844 670.925781 637.949219 670.925781 601.609375 C 670.925781 565.1875 641.789062 535.757812 605.734375 535.757812 Z M 187.472656 554.863281 C 161.96875 554.863281 141.277344 575.761719 141.277344 601.609375 C 141.277344 627.367188 161.96875 648.355469 187.472656 648.355469 C 213.058594 648.355469 233.742188 627.367188 233.742188 601.609375 C 233.742188 575.761719 213.058594 554.863281 187.472656 554.863281 Z M 187.472656 535.757812 C 151.5 535.757812 122.28125 565.1875 122.28125 601.609375 C 122.28125 637.949219 151.5 667.464844 187.472656 667.464844 C 223.527344 667.464844 252.664062 637.949219 252.664062 601.609375 C 252.664062 565.1875 223.527344 535.757812 187.472656 535.757812 Z M 684.351562 619.523438 C 684.351562 619.523438 705.800781 615 708 610.988281 C 710.277344 606.898438 707.574219 546.839844 704.453125 540.101562 C 701.328125 533.28125 695.078125 522.019531 695.078125 522.019531 C 695.078125 522.019531 689.671875 498.5625 665.605469 481.414062 C 641.453125 464.269531 603.878906 461.96875 579.808594 452.074219 C 555.65625 442.179688 495.785156 396.539062 460.488281 382.976562 C 425.191406 369.496094 378.65625 363.101562 327.734375 364.980469 C 276.816406 366.765625 173.535156 376.234375 169.144531 380.332031 C 164.671875 384.34375 141.359375 428.101562 135.113281 447.976562 C 128.863281 467.855469 130.636719 484.996094 127.511719 496.769531 C 124.390625 508.457031 106.992188 521.164062 103.441406 548.636719 C 99.816406 576.1875 110.542969 609.628906 110.542969 609.628906 L 116.195312 610.054688 C 115.691406 606.726562 115.519531 603.230469 115.519531 599.816406 C 115.519531 558.359375 148.707031 524.75 189.746094 524.75 C 230.792969 524.75 264.066406 558.359375 264.066406 599.816406 C 264.066406 607.40625 262.960938 614.742188 260.851562 621.652344 L 262.542969 621.824219 L 529.3125 623.105469 L 532.097656 623.105469 C 530.410156 616.621094 529.476562 609.800781 529.476562 602.804688 C 529.476562 559.726562 564.101562 524.75 606.828125 524.75 C 649.476562 524.75 684.097656 559.726562 684.097656 602.804688 C 684.097656 608.601562 683.511719 614.144531 682.324219 619.605469 L 684.351562 619.523438 " fill-opacity="1" fill-rule="evenodd"/></g><g clip-path="url(#cc776ebe1f)"><path fill="#e7eaef" d="M 402.945312 345.800781 L 402.898438 366.347656 L 386.128906 347.375 L 350.636719 347.375 C 340.078125 347.375 331.519531 338.8125 331.519531 328.253906 L 331.519531 306.007812 C 331.519531 295.449219 340.078125 286.886719 350.636719 286.886719 L 395.375 286.886719 C 405.933594 286.886719 414.492188 295.449219 414.492188 306.007812 L 414.492188 328.253906 C 414.492188 336.125 409.734375 342.867188 402.945312 345.800781 Z M 325.355469 305.949219 L 325.355469 321.882812 L 311.089844 337.824219 L 311.0625 320.546875 C 305.429688 318.09375 301.484375 312.488281 301.484375 305.949219 L 301.484375 290.03125 C 301.484375 281.230469 308.613281 274.097656 317.417969 274.097656 L 355.265625 274.097656 C 360.449219 274.097656 365.015625 276.617188 367.921875 280.453125 L 350.847656 280.453125 C 336.769531 280.453125 325.355469 291.863281 325.355469 305.949219 Z M 325.355469 305.949219 " fill-opacity="1" fill-rule="evenodd"/></g><g fill="#e7eaef" fill-opacity="1"><g transform="translate(69.684499, 264.079608)"><g><path d="M 26.453125 -71.421875 L 43.859375 -32.578125 L 61.265625 -71.421875 L 90.5 -71.421875 L 52.21875 0 L 35.5 0 L -2.78125 -71.421875 Z M 26.453125 -71.421875 "/></g></g></g><g fill="#e7eaef" fill-opacity="1"><g transform="translate(150.437531, 264.079608)"><g><path d="M 13.21875 -8.828125 C 6.539062 -16.117188 3.203125 -25.054688 3.203125 -35.640625 C 3.203125 -46.222656 6.539062 -55.179688 13.21875 -62.515625 C 19.90625 -69.847656 28.398438 -73.515625 38.703125 -73.515625 C 48.171875 -73.515625 55.96875 -70.546875 62.09375 -64.609375 L 62.09375 -71.421875 L 86.75 -71.421875 L 86.75 0 L 62.375 0 L 62.375 -8.078125 L 62.09375 -8.078125 C 55.96875 -1.296875 48.171875 2.09375 38.703125 2.09375 C 28.398438 2.09375 19.90625 -1.546875 13.21875 -8.828125 Z M 34.171875 -47.75 C 30.972656 -44.59375 29.375 -40.554688 29.375 -35.640625 C 29.375 -30.722656 30.90625 -26.707031 33.96875 -23.59375 C 37.03125 -20.488281 41.070312 -18.9375 46.09375 -18.9375 C 50.914062 -18.9375 54.878906 -20.515625 57.984375 -23.671875 C 61.097656 -26.828125 62.65625 -30.816406 62.65625 -35.640625 C 62.65625 -40.554688 61.050781 -44.59375 57.84375 -47.75 C 54.644531 -50.90625 50.726562 -52.484375 46.09375 -52.484375 C 41.351562 -52.484375 37.378906 -50.90625 34.171875 -47.75 Z M 34.171875 -47.75 "/></g></g></g><g fill="#e7eaef" fill-opacity="1"><g transform="translate(238.569771, 264.079608)"><g><path d="M 8.359375 0 L 8.359375 -71.421875 L 33 -71.421875 L 33 -63.90625 L 33.28125 -63.90625 C 39.6875 -70.3125 46.507812 -73.515625 53.75 -73.515625 C 58.945312 -73.515625 63.816406 -72.445312 68.359375 -70.3125 C 72.910156 -68.175781 76.347656 -64.878906 78.671875 -60.421875 C 85.910156 -69.148438 93.800781 -73.515625 102.34375 -73.515625 C 109.945312 -73.515625 116.488281 -71.378906 121.96875 -67.109375 C 127.445312 -62.835938 130.1875 -56.15625 130.1875 -47.0625 L 130.1875 0 L 105.546875 0 L 105.546875 -40.375 C 105.546875 -44.1875 104.5 -47.367188 102.40625 -49.921875 C 100.320312 -52.472656 97.191406 -53.75 93.015625 -53.75 C 89.390625 -53.75 86.625 -52.65625 84.71875 -50.46875 C 82.820312 -48.289062 81.78125 -45.671875 81.59375 -42.609375 L 81.59375 0 L 56.953125 0 L 56.953125 -40.375 C 56.953125 -44.1875 55.90625 -47.367188 53.8125 -49.921875 C 51.726562 -52.472656 48.597656 -53.75 44.421875 -53.75 C 40.609375 -53.75 37.75 -52.5625 35.84375 -50.1875 C 33.945312 -47.820312 33 -45.015625 33 -41.765625 L 33 0 Z M 8.359375 0 "/></g></g></g><g fill="#e7eaef" fill-opacity="1"><g transform="translate(368.74959, 264.079608)"><g><path d="M 81.859375 -62.515625 C 88.546875 -55.179688 91.890625 -46.222656 91.890625 -35.640625 C 91.890625 -25.054688 88.546875 -16.117188 81.859375 -8.828125 C 75.179688 -1.546875 66.691406 2.09375 56.390625 2.09375 C 46.921875 2.09375 39.125 -1.296875 33 -8.078125 L 32.71875 -8.078125 L 32.71875 0 L 8.359375 0 L 8.359375 -119.734375 L 33 -119.734375 L 33 -64.609375 C 39.125 -70.546875 46.921875 -73.515625 56.390625 -73.515625 C 66.691406 -73.515625 75.179688 -69.847656 81.859375 -62.515625 Z M 61.125 -23.59375 C 64.1875 -26.707031 65.71875 -30.722656 65.71875 -35.640625 C 65.71875 -40.554688 64.113281 -44.59375 60.90625 -47.75 C 57.707031 -50.90625 53.742188 -52.484375 49.015625 -52.484375 C 44.367188 -52.484375 40.441406 -50.90625 37.234375 -47.75 C 34.035156 -44.59375 32.4375 -40.554688 32.4375 -35.640625 C 32.4375 -30.816406 33.988281 -26.828125 37.09375 -23.671875 C 40.207031 -20.515625 44.179688 -18.9375 49.015625 -18.9375 C 54.023438 -18.9375 58.0625 -20.488281 61.125 -23.59375 Z M 61.125 -23.59375 "/></g></g></g><g fill="#e7eaef" fill-opacity="1"><g transform="translate(456.881818, 264.079608)"><g><path d="M 15.109375 -8.484375 C 7.171875 -15.546875 3.203125 -24.597656 3.203125 -35.640625 C 3.203125 -46.691406 7.332031 -55.765625 15.59375 -62.859375 C 23.851562 -69.960938 34.0625 -73.515625 46.21875 -73.515625 C 58.195312 -73.515625 68.289062 -69.941406 76.5 -62.796875 C 84.71875 -55.648438 88.828125 -46.597656 88.828125 -35.640625 C 88.828125 -24.691406 84.8125 -15.664062 76.78125 -8.5625 C 68.757812 -1.457031 58.570312 2.09375 46.21875 2.09375 C 33.414062 2.09375 23.046875 -1.429688 15.109375 -8.484375 Z M 34.171875 -47.75 C 30.972656 -44.59375 29.375 -40.554688 29.375 -35.640625 C 29.375 -30.722656 30.90625 -26.707031 33.96875 -23.59375 C 37.03125 -20.488281 41.070312 -18.9375 46.09375 -18.9375 C 50.914062 -18.9375 54.878906 -20.515625 57.984375 -23.671875 C 61.097656 -26.828125 62.65625 -30.816406 62.65625 -35.640625 C 62.65625 -40.554688 61.050781 -44.59375 57.84375 -47.75 C 54.644531 -50.90625 50.726562 -52.484375 46.09375 -52.484375 C 41.351562 -52.484375 37.378906 -50.90625 34.171875 -47.75 Z M 34.171875 -47.75 "/></g></g></g><g fill="#e7eaef" fill-opacity="1"><g transform="translate(541.951012, 264.079608)"><g><path d="M 8.359375 0 L 8.359375 -71.421875 L 33 -71.421875 L 33 -61.125 L 33.28125 -61.125 C 33.46875 -61.5 33.769531 -61.960938 34.1875 -62.515625 C 34.601562 -63.078125 35.503906 -64.050781 36.890625 -65.4375 C 38.285156 -66.832031 39.769531 -68.085938 41.34375 -69.203125 C 42.925781 -70.316406 44.96875 -71.3125 47.46875 -72.1875 C 49.976562 -73.070312 52.535156 -73.515625 55.140625 -73.515625 C 57.828125 -73.515625 60.46875 -73.140625 63.0625 -72.390625 C 65.664062 -71.648438 67.570312 -70.910156 68.78125 -70.171875 L 70.734375 -69.0625 L 60.421875 -48.171875 C 57.359375 -50.773438 53.09375 -52.078125 47.625 -52.078125 C 44.644531 -52.078125 42.085938 -51.425781 39.953125 -50.125 C 37.828125 -48.820312 36.320312 -47.242188 35.4375 -45.390625 C 34.550781 -43.535156 33.921875 -41.957031 33.546875 -40.65625 C 33.179688 -39.351562 33 -38.332031 33 -37.59375 L 33 0 Z M 8.359375 0 "/></g></g></g><g fill="#e7eaef" fill-opacity="1"><g transform="translate(604.325613, 264.079608)"><g><path d="M 13.21875 -8.828125 C 6.539062 -16.117188 3.203125 -25.054688 3.203125 -35.640625 C 3.203125 -46.222656 6.539062 -55.179688 13.21875 -62.515625 C 19.90625 -69.847656 28.398438 -73.515625 38.703125 -73.515625 C 48.171875 -73.515625 55.96875 -70.546875 62.09375 -64.609375 L 62.09375 -71.421875 L 86.75 -71.421875 L 86.75 0 L 62.375 0 L 62.375 -8.078125 L 62.09375 -8.078125 C 55.96875 -1.296875 48.171875 2.09375 38.703125 2.09375 C 28.398438 2.09375 19.90625 -1.546875 13.21875 -8.828125 Z M 34.171875 -47.75 C 30.972656 -44.59375 29.375 -40.554688 29.375 -35.640625 C 29.375 -30.722656 30.90625 -26.707031 33.96875 -23.59375 C 37.03125 -20.488281 41.070312 -18.9375 46.09375 -18.9375 C 50.914062 -18.9375 54.878906 -20.515625 57.984375 -23.671875 C 61.097656 -26.828125 62.65625 -30.816406 62.65625 -35.640625 C 62.65625 -40.554688 61.050781 -44.59375 57.84375 -47.75 C 54.644531 -50.90625 50.726562 -52.484375 46.09375 -52.484375 C 41.351562 -52.484375 37.378906 -50.90625 34.171875 -47.75 Z M 34.171875 -47.75 "/></g></g></g><g fill="#e7eaef" fill-opacity="1"><g transform="translate(692.457841, 264.079608)"><g><path d="M 15.3125 -37.59375 L 11.96875 -119.734375 L 36.625 -119.734375 L 33.28125 -37.59375 Z M 24.234375 -29.796875 C 28.679688 -29.796875 32.457031 -28.238281 35.5625 -25.125 C 38.675781 -22.019531 40.234375 -18.238281 40.234375 -13.78125 C 40.234375 -9.414062 38.675781 -5.675781 35.5625 -2.5625 C 32.457031 0.539062 28.679688 2.09375 24.234375 2.09375 C 19.867188 2.09375 16.128906 0.539062 13.015625 -2.5625 C 9.910156 -5.675781 8.359375 -9.414062 8.359375 -13.78125 C 8.359375 -18.238281 9.910156 -22.019531 13.015625 -25.125 C 16.128906 -28.238281 19.867188 -29.796875 24.234375 -29.796875 Z M 24.234375 -29.796875 "/></g></g></g><g fill="#e7eaef" fill-opacity="1"><g transform="translate(556.867943, 319.12515)"><g><path d="M 8.609375 0 L 1.625 0 C 1.394531 0 1.28125 -0.109375 1.28125 -0.328125 L 1.28125 -1.6875 C 1.28125 -1.894531 1.394531 -2 1.625 -2 L 3.671875 -2 L 3.671875 -17.203125 L 1.625 -17.203125 C 1.394531 -17.203125 1.28125 -17.304688 1.28125 -17.515625 L 1.28125 -18.890625 C 1.28125 -19.097656 1.394531 -19.203125 1.625 -19.203125 L 9.875 -19.203125 C 11.757812 -19.203125 13.300781 -18.65625 14.5 -17.5625 C 15.707031 -16.46875 16.3125 -14.988281 16.3125 -13.125 C 16.3125 -11.257812 15.722656 -9.8125 14.546875 -8.78125 C 13.367188 -7.757812 11.710938 -7.25 9.578125 -7.25 L 5.984375 -7.25 L 5.984375 -2 L 8.609375 -2 C 8.828125 -2 8.9375 -1.894531 8.9375 -1.6875 L 8.9375 -0.328125 C 8.9375 -0.109375 8.828125 0 8.609375 0 Z M 5.984375 -9.15625 L 9.46875 -9.15625 C 12.46875 -9.15625 13.96875 -10.472656 13.96875 -13.109375 C 13.96875 -14.484375 13.539062 -15.507812 12.6875 -16.1875 C 11.84375 -16.863281 10.78125 -17.203125 9.5 -17.203125 L 5.984375 -17.203125 Z M 5.984375 -9.15625 "/></g></g></g><g fill="#e7eaef" fill-opacity="1"><g transform="translate(575.801903, 319.12515)"><g><path d="M 17.515625 0 L 15.1875 0 C 14.550781 0 14.019531 -0.425781 13.59375 -1.28125 L 11.078125 -6.390625 C 10.859375 -6.835938 10.628906 -7.164062 10.390625 -7.375 C 10.148438 -7.59375 9.816406 -7.710938 9.390625 -7.734375 L 5.984375 -7.734375 L 5.984375 -2 L 8.40625 -2 C 8.613281 -2 8.71875 -1.894531 8.71875 -1.6875 L 8.71875 -0.328125 C 8.71875 -0.109375 8.613281 0 8.40625 0 L 1.625 0 C 1.394531 0 1.28125 -0.109375 1.28125 -0.328125 L 1.28125 -1.6875 C 1.28125 -1.894531 1.394531 -2 1.625 -2 L 3.671875 -2 L 3.671875 -17.203125 L 1.625 -17.203125 C 1.394531 -17.203125 1.28125 -17.304688 1.28125 -17.515625 L 1.28125 -18.890625 C 1.28125 -19.097656 1.394531 -19.203125 1.625 -19.203125 L 9.875 -19.203125 C 11.78125 -19.203125 13.328125 -18.695312 14.515625 -17.6875 C 15.710938 -16.6875 16.3125 -15.265625 16.3125 -13.421875 C 16.3125 -10.628906 15.003906 -8.882812 12.390625 -8.1875 C 12.722656 -7.914062 13.140625 -7.316406 13.640625 -6.390625 L 15.890625 -2 L 17.515625 -2 C 17.734375 -2 17.84375 -1.894531 17.84375 -1.6875 L 17.84375 -0.328125 C 17.84375 -0.109375 17.734375 0 17.515625 0 Z M 5.984375 -9.625 L 9.421875 -9.625 C 12.453125 -9.625 13.96875 -10.863281 13.96875 -13.34375 C 13.96875 -15.914062 12.453125 -17.203125 9.421875 -17.203125 L 5.984375 -17.203125 Z M 5.984375 -9.625 "/></g></g></g><g fill="#e7eaef" fill-opacity="1"><g transform="translate(596.260159, 319.12515)"><g><path d="M 20.546875 0 L 14.5 0 C 14.28125 0 14.171875 -0.109375 14.171875 -0.328125 L 14.171875 -1.6875 C 14.171875 -1.894531 14.28125 -2 14.5 -2 L 16.375 -2 L 14.625 -6.640625 L 7.171875 -6.640625 L 5.4375 -2 L 7.296875 -2 C 7.515625 -2 7.625 -1.894531 7.625 -1.6875 L 7.625 -0.328125 C 7.625 -0.109375 7.515625 0 7.296875 0 L 1.28125 0 C 1.070312 0 0.96875 -0.109375 0.96875 -0.328125 L 0.96875 -1.6875 C 0.96875 -1.894531 1.070312 -2 1.28125 -2 L 3.078125 -2 L 8.828125 -17.203125 L 7.390625 -17.203125 C 7.148438 -17.203125 7.03125 -17.304688 7.03125 -17.515625 L 7.03125 -18.890625 C 7.03125 -19.097656 7.148438 -19.203125 7.390625 -19.203125 L 11.015625 -19.203125 C 11.441406 -19.203125 11.765625 -19.113281 11.984375 -18.9375 C 12.210938 -18.757812 12.410156 -18.46875 12.578125 -18.0625 L 18.71875 -2 L 20.546875 -2 C 20.753906 -2 20.859375 -1.894531 20.859375 -1.6875 L 20.859375 -0.328125 C 20.859375 -0.109375 20.753906 0 20.546875 0 Z M 13.90625 -8.484375 L 10.9375 -16.421875 L 10.859375 -16.421875 L 7.859375 -8.484375 Z M 13.90625 -8.484375 "/></g></g></g><g fill="#e7eaef" fill-opacity="1"><g transform="translate(620.08793, 319.12515)"><g/></g></g><g fill="#e7eaef" fill-opacity="1"><g transform="translate(629.79585, 319.12515)"><g><path d="M 19.90625 -9.6875 C 19.90625 -6.757812 19.023438 -4.378906 17.265625 -2.546875 C 15.503906 -0.722656 13.289062 0.1875 10.625 0.1875 C 7.96875 0.1875 5.742188 -0.734375 3.953125 -2.578125 C 2.171875 -4.421875 1.28125 -6.800781 1.28125 -9.71875 C 1.28125 -12.632812 2.195312 -14.96875 4.03125 -16.71875 C 5.875 -18.476562 8.066406 -19.359375 10.609375 -19.359375 C 13.160156 -19.359375 15.347656 -18.476562 17.171875 -16.71875 C 18.992188 -14.96875 19.90625 -12.625 19.90625 -9.6875 Z M 5.84375 -4.03125 C 7.207031 -2.664062 8.796875 -1.984375 10.609375 -1.984375 C 12.429688 -1.984375 14.019531 -2.664062 15.375 -4.03125 C 16.738281 -5.394531 17.421875 -7.265625 17.421875 -9.640625 C 17.421875 -12.023438 16.726562 -13.890625 15.34375 -15.234375 C 13.957031 -16.578125 12.378906 -17.25 10.609375 -17.25 C 8.847656 -17.25 7.269531 -16.578125 5.875 -15.234375 C 4.488281 -13.890625 3.796875 -12.023438 3.796875 -9.640625 C 3.796875 -7.265625 4.476562 -5.394531 5.84375 -4.03125 Z M 5.84375 -4.03125 "/></g></g></g><g fill="#e7eaef" fill-opacity="1"><g transform="translate(652.34, 319.12515)"><g><path d="M 17.921875 0 L 16.484375 0 C 16.140625 0 15.867188 -0.0664062 15.671875 -0.203125 C 15.472656 -0.335938 15.285156 -0.546875 15.109375 -0.828125 L 7.390625 -12.921875 L 6.046875 -15.171875 L 5.984375 -15.171875 L 5.984375 -2 L 8.046875 -2 C 8.285156 -2 8.40625 -1.894531 8.40625 -1.6875 L 8.40625 -0.328125 C 8.40625 -0.109375 8.285156 0 8.046875 0 L 1.625 0 C 1.394531 0 1.28125 -0.109375 1.28125 -0.328125 L 1.28125 -1.6875 C 1.28125 -1.894531 1.394531 -2 1.625 -2 L 3.671875 -2 L 3.671875 -17.203125 L 1.625 -17.203125 C 1.394531 -17.203125 1.28125 -17.304688 1.28125 -17.515625 L 1.28125 -18.890625 C 1.28125 -19.097656 1.394531 -19.203125 1.625 -19.203125 L 5.375 -19.203125 C 5.894531 -19.203125 6.347656 -18.898438 6.734375 -18.296875 L 14.359375 -6.359375 L 15.890625 -3.765625 L 15.9375 -3.765625 L 15.9375 -17.203125 L 13.890625 -17.203125 C 13.671875 -17.203125 13.5625 -17.304688 13.5625 -17.515625 L 13.5625 -18.890625 C 13.5625 -19.097656 13.671875 -19.203125 13.890625 -19.203125 L 20.328125 -19.203125 C 20.546875 -19.203125 20.65625 -19.097656 20.65625 -18.890625 L 20.65625 -17.515625 C 20.65625 -17.304688 20.546875 -17.203125 20.328125 -17.203125 L 18.265625 -17.203125 L 18.265625 -0.328125 C 18.265625 -0.109375 18.148438 0 17.921875 0 Z M 17.921875 0 "/></g></g></g><g fill="#e7eaef" fill-opacity="1"><g transform="translate(675.606192, 319.12515)"><g><path d="M 9.15625 0 L 1.46875 0 C 1.257812 0 1.15625 -0.109375 1.15625 -0.328125 L 1.15625 -1.6875 C 1.15625 -1.894531 1.257812 -2 1.46875 -2 L 3.53125 -2 L 3.53125 -17.203125 L 1.46875 -17.203125 C 1.257812 -17.203125 1.15625 -17.304688 1.15625 -17.515625 L 1.15625 -18.890625 C 1.15625 -19.097656 1.257812 -19.203125 1.46875 -19.203125 L 8.6875 -19.203125 C 11.65625 -19.203125 14.007812 -18.347656 15.75 -16.640625 C 17.5 -14.941406 18.375 -12.601562 18.375 -9.625 C 18.375 -6.644531 17.546875 -4.296875 15.890625 -2.578125 C 14.234375 -0.859375 11.988281 0 9.15625 0 Z M 5.859375 -2 L 8.5 -2 C 13.457031 -2.039062 15.9375 -4.566406 15.9375 -9.578125 C 15.9375 -11.984375 15.300781 -13.851562 14.03125 -15.1875 C 12.757812 -16.53125 10.890625 -17.203125 8.421875 -17.203125 L 5.859375 -17.203125 Z M 5.859375 -2 "/></g></g></g><g fill="#e7eaef" fill-opacity="1"><g transform="translate(696.733014, 319.12515)"><g><path d="M 15.84375 0 L 1.625 0 C 1.394531 0 1.28125 -0.109375 1.28125 -0.328125 L 1.28125 -1.6875 C 1.28125 -1.894531 1.394531 -2 1.625 -2 L 3.671875 -2 L 3.671875 -17.203125 L 1.625 -17.203125 C 1.394531 -17.203125 1.28125 -17.304688 1.28125 -17.515625 L 1.28125 -18.890625 C 1.28125 -19.097656 1.394531 -19.203125 1.625 -19.203125 L 15.84375 -19.203125 C 16.070312 -19.203125 16.1875 -19.097656 16.1875 -18.890625 L 16.1875 -14.578125 C 16.1875 -14.347656 16.070312 -14.234375 15.84375 -14.234375 L 14.390625 -14.234375 C 14.179688 -14.234375 14.078125 -14.347656 14.078125 -14.578125 L 14.078125 -17.203125 L 5.984375 -17.203125 L 5.984375 -10.5625 L 12.765625 -10.5625 C 12.992188 -10.5625 13.109375 -10.457031 13.109375 -10.25 L 13.109375 -8.875 C 13.109375 -8.664062 12.992188 -8.5625 12.765625 -8.5625 L 5.984375 -8.5625 L 5.984375 -2 L 14.046875 -2 L 14.046875 -4.625 C 14.046875 -4.84375 14.160156 -4.953125 14.390625 -4.953125 L 15.84375 -4.953125 C 16.070312 -4.953125 16.1875 -4.84375 16.1875 -4.625 L 16.1875 -0.328125 C 16.1875 -0.109375 16.070312 0 15.84375 0 Z M 15.84375 0 "/></g></g></g><g fill="#e7eaef" fill-opacity="1"><g transform="translate(715.533264, 319.12515)"><g><path d="M 8.109375 -3.390625 L 6.265625 -3.390625 C 6.023438 -3.390625 5.90625 -3.5 5.90625 -3.71875 C 5.90625 -4.84375 6.117188 -5.84375 6.546875 -6.71875 C 6.984375 -7.59375 7.503906 -8.296875 8.109375 -8.828125 C 8.710938 -9.359375 9.316406 -9.859375 9.921875 -10.328125 C 11.390625 -11.410156 12.125 -12.507812 12.125 -13.625 C 12.125 -14.738281 11.726562 -15.617188 10.9375 -16.265625 C 10.15625 -16.910156 9.0625 -17.234375 7.65625 -17.234375 C 6.257812 -17.234375 5.195312 -16.875 4.46875 -16.15625 C 3.75 -15.445312 3.382812 -14.507812 3.375 -13.34375 C 3.375 -13.132812 3.265625 -13.03125 3.046875 -13.03125 L 1.359375 -13.03125 C 1.128906 -13.03125 1.015625 -13.132812 1.015625 -13.34375 C 1.015625 -15.019531 1.5625 -16.441406 2.65625 -17.609375 C 3.757812 -18.773438 5.414062 -19.359375 7.625 -19.359375 C 9.832031 -19.359375 11.535156 -18.84375 12.734375 -17.8125 C 13.941406 -16.78125 14.546875 -15.476562 14.546875 -13.90625 C 14.546875 -13.050781 14.394531 -12.28125 14.09375 -11.59375 C 13.789062 -10.90625 13.414062 -10.351562 12.96875 -9.9375 C 12.53125 -9.53125 12.039062 -9.097656 11.5 -8.640625 C 10.96875 -8.191406 10.476562 -7.769531 10.03125 -7.375 C 9.582031 -6.988281 9.207031 -6.476562 8.90625 -5.84375 C 8.601562 -5.207031 8.453125 -4.5 8.453125 -3.71875 C 8.453125 -3.5 8.335938 -3.390625 8.109375 -3.390625 Z M 8.203125 -1.109375 C 8.472656 -0.835938 8.609375 -0.503906 8.609375 -0.109375 C 8.609375 0.285156 8.472656 0.617188 8.203125 0.890625 C 7.941406 1.171875 7.609375 1.3125 7.203125 1.3125 C 6.804688 1.3125 6.46875 1.171875 6.1875 0.890625 C 5.914062 0.617188 5.78125 0.285156 5.78125 -0.109375 C 5.78125 -0.503906 5.914062 -0.835938 6.1875 -1.109375 C 6.46875 -1.390625 6.804688 -1.53125 7.203125 -1.53125 C 7.609375 -1.53125 7.941406 -1.390625 8.203125 -1.109375 Z M 8.203125 -1.109375 "/></g></g></g></svg>